:FULLY-SPECIFIED
:FORCE-ALL-JOINTS-BE-3DOF
:DEGREES
63
root 0.619122 18.9128 -2.52613 5.57189 -3.32804 -7.53249
lfemur -40.0235 -7.78939 -5.87058
ltibia 36.9715 0 0
lfoot 11.4715 -3.81315 0
ltoes -16.1899 0 0
rfemur 26.164 8.77936 35.1871
rtibia 16.6469 0 0
rfoot 33.4137 -3.34812 0
rtoes 19.7408 0 0
lowerback 12.7233 1.57554 7.63152
upperback 0.746144 3.21462 0.547263
thorax -5.96569 1.37531 -4.28022
lowerneck -7.85825 -0.775447 -0.688585
upperneck -6.36207 -0.939619 1.27974
head -0.653197 -0.455441 0.485287
lclavicle -1.04859e-14 -4.77083e-15 0
lhumerus -62.5903 -3.40151 90.7833
lradius 104.082 0 0
lwrist 25.9924 0 0
lhand -37.4895 10.9557 0
lfingers 7.12502 0 0
lthumb -10.5468 40.6711 0
rclavicle -1.04859e-14 -4.77083e-15 0
rhumerus -30.3983 24.5041 -88.0718
rradius 110.887 0 0
rwrist -1.70607 0 0
rhand -43.6601 36.1992 0
rfingers 7.12502 0 0
rthumb -16.494 6.88028 0
64
root 0.618584 18.8789 -2.00624 5.48067 -3.01717 -7.14109
lfemur -38.4494 -7.57699 -6.54485
ltibia 36.63 0 0
lfoot 10.9984 -3.90204 0
ltoes -16.6885 0 0
rfemur 23.9601 8.21282 34.6188
rtibia 19.3826 0 0
rfoot 32.7178 -3.46679 0
rtoes 19.4769 0 0
lowerback 12.8644 1.40608 7.1912
upperback 0.757542 2.91174 0.464582
thorax -6.03042 1.24087 -4.0565
lowerneck -7.7879 -0.724177 -0.723032
upperneck -6.41586 -0.869033 1.2977
head -0.682696 -0.419947 0.497609
lclavicle -1.01765e-14 -3.87309e-15 0
lhumerus -60.923 -3.76437 90.6003
lradius 104.455 0 0
lwrist 26.1028 0 0
lhand -37.5167 10.8182 0
lfingers 7.12502 0 0
lthumb -10.573 40.5322 0
rclavicle -1.01765e-14 -3.87309e-15 0
rhumerus -31.3354 23.842 -87.9069
rradius 109.869 0 0
rwrist -1.7474 0 0
rhand -43.6799 36.169 0
rfingers 7.12502 0 0
rthumb -16.513 6.85167 0
65
root 0.618045 18.8449 -1.48634 5.38946 -2.7063 -6.74969
lfemur -36.8752 -7.36458 -7.21911
ltibia 36.2884 0 0
lfoot 10.5252 -3.99094 0
ltoes -17.1872 0 0
rfemur 21.7561 7.64627 34.0504
rtibia 22.1184 0 0
rfoot 32.0219 -3.58545 0
rtoes 19.213 0 0
lowerback 13.0055 1.23662 6.75089
upperback 0.768939 2.60887 0.3819
thorax -6.09516 1.10643 -3.83277
lowerneck -7.71754 -0.672908 -0.75748
upperneck -6.46964 -0.798447 1.31566
head -0.712195 -0.384453 0.509932
lclavicle -9.8671e-15 -2.97536e-15 0
lhumerus -59.2558 -4.12723 90.4174
lradius 104.829 0 0
lwrist 26.2132 0 0
lhand -37.5438 10.6808 0
lfingers 7.12502 0 0
lthumb -10.5992 40.3934 0
rclavicle -9.8671e-15 -2.97536e-15 0
rhumerus -32.2726 23.18 -87.742
rradius 108.851 0 0
rwrist -1.78872 0 0
rhand -43.6996 36.1388 0
rfingers 7.12502 0 0
rthumb -16.532 6.82306 0
66
root 0.617507 18.811 -0.966446 5.29824 -2.39543 -6.35829
lfemur -35.3011 -7.15218 -7.89338
ltibia 35.9469 0 0
lfoot 10.0521 -4.07983 0
ltoes -17.6858 0 0
rfemur 19.5522 7.07973 33.4821
rtibia 24.8541 0 0
rfoot 31.326 -3.70412 0
rtoes 18.9491 0 0
lowerback 13.1466 1.06716 6.31057
upperback 0.780337 2.30599 0.299219
thorax -6.15989 0.971993 -3.60905
lowerneck -7.64719 -0.621638 -0.791927
upperneck -6.52343 -0.727861 1.33362
head -0.741694 -0.348959 0.522254
lclavicle -9.5577e-15 -2.07762e-15 0
lhumerus -57.5885 -4.49008 90.2344
lradius 105.202 0 0
lwrist 26.3236 0 0
lhand -37.571 10.5433 0
lfingers 7.12502 0 0
lthumb -10.6254 40.2545 0
rclavicle -9.5577e-15 -2.07762e-15 0
rhumerus -33.2097 22.5179 -87.5771
rradius 107.833 0 0
rwrist -1.83005 0 0
rhand -43.7194 36.1085 0
rfingers 7.12502 0 0
rthumb -16.5511 6.79446 0
67
root 0.616968 18.777 -0.446552 5.20702 -2.08456 -5.96689
lfemur -33.727 -6.93977 -8.56764
ltibia 35.6054 0 0
lfoot 9.57899 -4.16872 0
ltoes -18.1845 0 0
rfemur 17.3483 6.51318 32.9138
rtibia 27.5899 0 0
rfoot 30.6302 -3.82279 0
rtoes 18.6852 0 0
lowerback 13.2877 0.897704 5.87025
upperback 0.791734 2.00311 0.216537
thorax -6.22462 0.837554 -3.38533
lowerneck -7.57683 -0.570369 -0.826374
upperneck -6.57722 -0.657275 1.35157
head -0.771194 -0.313464 0.534576
lclavicle -9.2483e-15 -1.17988e-15 0
lhumerus -55.9213 -4.85294 90.0515
lradius 105.576 0 0
lwrist 26.434 0 0
lhand -37.5982 10.4058 0
lfingers 7.12502 0 0
lthumb -10.6516 40.1157 0
rclavicle -9.2483e-15 -1.17988e-15 0
rhumerus -34.1468 21.8559 -87.4122
rradius 106.815 0 0
rwrist -1.87138 0 0
rhand -43.7391 36.0783 0
rfingers 7.12502 0 0
rthumb -16.5701 6.76585 0
68
root 0.61643 18.7431 0.0733426 5.1158 -1.77369 -5.57549
lfemur -32.1528 -6.72737 -9.24191
ltibia 35.2639 0 0
lfoot 9.10586 -4.25761 0
ltoes -18.6831 0 0
rfemur 15.1443 5.94664 32.3455
rtibia 30.3256 0 0
rfoot 29.9343 -3.94145 0
rtoes 18.4213 0 0
lowerback 13.4288 0.728245 5.42993
upperback 0.803132 1.70023 0.133856
thorax -6.28935 0.703115 -3.1616
lowerneck -7.50648 -0.519099 -0.860821
upperneck -6.63101 -0.586689 1.36953
head -0.800693 -0.27797 0.546898
lclavicle -8.93891e-15 -2.82148e-16 0
lhumerus -54.254 -5.2158 89.8685
lradius 105.949 0 0
lwrist 26.5444 0 0
lhand -37.6253 10.2684 0
lfingers 7.12502 0 0
lthumb -10.6778 39.9768 0
rclavicle -8.93891e-15 -2.82148e-16 0
rhumerus -35.0839 21.1938 -87.2473
rradius 105.798 0 0
rwrist -1.9127 0 0
rhand -43.7589 36.0481 0
rfingers 7.12502 0 0
rthumb -16.5891 6.73724 0
69
root 0.615891 18.7091 0.593237 5.02459 -1.46282 -5.1841
lfemur -30.5787 -6.51497 -9.91617
ltibia 34.9223 0 0
lfoot 8.63273 -4.34651 0
ltoes -19.1818 0 0
rfemur 12.9404 5.38009 31.7771
rtibia 33.0614 0 0
rfoot 29.2384 -4.06012 0
rtoes 18.1574 0 0
lowerback 13.5699 0.558786 4.98962
upperback 0.81453 1.39736 0.0511747
thorax -6.35409 0.568676 -2.93788
lowerneck -7.43612 -0.46783 -0.895269
upperneck -6.68479 -0.516102 1.38749
head -0.830192 -0.242476 0.559221
lclavicle -8.62951e-15 6.15589e-16 0
lhumerus -52.5868 -5.57866 89.6856
lradius 106.322 0 0
lwrist 26.6548 0 0
lhand -37.6525 10.1309 0
lfingers 7.12502 0 0
lthumb -10.704 39.838 0
rclavicle -8.62951e-15 6.15589e-16 0
rhumerus -36.0211 20.5318 -87.0824
rradius 104.78 0 0
rwrist -1.95403 0 0
rhand -43.7786 36.0179 0
rfingers 7.12502 0 0
rthumb -16.6081 6.70863 0
70
root 0.615353 18.6752 1.11313 4.93337 -1.15195 -4.7927
lfemur -29.0046 -6.30256 -10.5904
ltibia 34.5808 0 0
lfoot 8.15961 -4.4354 0
ltoes -19.6804 0 0
rfemur 10.7365 4.81355 31.2088
rtibia 35.7971 0 0
rfoot 28.5425 -4.17879 0
rtoes 17.8935 0 0
lowerback 13.711 0.389327 4.5493
upperback 0.825927 1.09448 -0.0315067
thorax -6.41882 0.434237 -2.71416
lowerneck -7.36577 -0.41656 -0.929716
upperneck -6.73858 -0.445516 1.40545
head -0.859691 -0.206982 0.571543
lclavicle -8.32011e-15 1.51333e-15 0
lhumerus -50.9195 -5.94151 89.5026
lradius 106.696 0 0
lwrist 26.7652 0 0
lhand -37.6797 9.99341 0
lfingers 7.12502 0 0
lthumb -10.7302 39.6991 0
rclavicle -8.32011e-15 1.51333e-15 0
rhumerus -36.9582 19.8697 -86.9175
rradius 103.762 0 0
rwrist -1.99536 0 0
rhand -43.7984 35.9876 0
rfingers 7.12502 0 0
rthumb -16.6271 6.68002 0
